#!OML:ASF F:\VICON\USERDATA\INSTALL\SteveWalk\SteveWalk.ASF
:FULLY-SPECIFIED
:DEGREES

359
root 0.615046 15.7921 32.4356 17.194 7.49188 1.77558
lowerback -16.3035 -2.95472 -1.478
upperback -5.49222 -3.70271 1.28223
thorax 3.45341 -1.81695 1.47992
lowerneck -3.07376 -0.413098 -1.45199
upperneck 8.57426 -0.498112 0.406713
head 3.29536 -0.27854 0.366033
rclavicle -4.59565e-014 2.46493e-014
rhumerus -103.671 -29.5304 22.8145
rradius 10.7654
rwrist 69.5632
rhand -15.6476 -36.4027
rfingers 7.12502
rthumb 10.5401 -426.118
lclavicle -4.59565e-014 2.46493e-014
lhumerus -13.6291 -7.37005 81.592
lradius 49.7918
lwrist 12.4798
lhand -25.7344 -20.3
lfingers 7.12502
lthumb 0.802271 9.67827
rfemur -49.3688 -4.75884 23.0229
rtibia 26.7997
rfoot -8.16706 1.6306
rtoes -18.3163
lfemur 2.82871 -0.223683 -20.4194
ltibia 23.759
lfoot -13.3461 -14.3746
ltoes -26.3051
360
root 0.612214 15.7899 32.6902 17.4199 7.35042 1.70115
lowerback -16.6153 -2.93994 -1.29549
upperback -5.6043 -3.71399 1.43097
thorax 3.49925 -1.82137 1.52036
lowerneck -3.25821 -0.305982 -1.44104
upperneck 8.67112 -0.32478 0.0886064
head 3.36115 -0.204701 0.267258
rclavicle 3.62782e-014 -3.97569e-015
rhumerus -103.517 -29.5972 23.1179
rradius 10.6744
rwrist 70.1068
rhand -15.6653 -36.1131
rfingers 7.12502
rthumb 10.5231 -425.83
lclavicle 3.62782e-014 -3.97569e-015
lhumerus -14.3643 -7.05142 81.7334
lradius 50.5789
lwrist 13.3579
lhand -25.9796 -19.8302
lfingers 7.12502
lthumb 0.565408 10.1488
rfemur -49.6895 -3.61545 22.1855
rtibia 27.9871
rfoot -6.57178 1.26904
rtoes -12.0903
lfemur 2.03613 -0.515631 -20.2981
ltibia 25.9712
lfoot -10.4579 -14.8361
ltoes -22.6486
361
root 0.610202 15.7761 32.9242 17.6159 6.98264 1.54275
lowerback -16.8252 -2.8134 -1.04148
upperback -5.60593 -3.59401 1.57788
thorax 3.59851 -1.7624 1.54642
lowerneck -3.7622 -0.259303 -1.42621
upperneck 8.85741 -0.222516 -0.266174
head 3.52137 -0.168825 0.152881
rclavicle 2.15309e-014 1.59028e-014
rhumerus -103.569 -29.9921 23.4634
rradius 10.6859
rwrist 70.6063
rhand -15.8022 -36.0058
rfingers 7.12502
rthumb 10.391 -425.729
lclavicle 2.15309e-014 1.59028e-014
lhumerus -15.0751 -6.47517 81.8876
lradius 51.4139
lwrist 13.9877
lhand -25.8324 -20.4786
lfingers 7.12502
lthumb 0.707616 9.49993
rfemur -49.9749 -2.56768 21.7327
rtibia 29.1352
rfoot -5.90174 0.794399
rtoes -17.0291
lfemur 0.874664 -0.506395 -20.1761
ltibia 28.6979
lfoot -7.42497 -15.4063
ltoes -20.4738
362
root 0.626207 15.7704 33.1535 17.6825 6.80721 0.837901
lowerback -16.6343 -2.535 0.137216
upperback -5.84464 -3.42125 1.75387
thorax 3.18261 -1.68023 1.11666
lowerneck -3.96056 -0.208138 -1.32325
upperneck 9.05726 -0.12052 -0.661312
head 3.62847 -0.132619 0.0093801
rclavicle -1.42876e-015 -7.15625e-015
rhumerus -102.553 -30.3068 21.6225
rradius 10.8456
rwrist 69.2204
rhand -15.8579 -36.0365
rfingers 7.12502
rthumb 10.3373 -425.762
lclavicle -1.42876e-015 -7.15625e-015
lhumerus -16.259 -5.99027 82.0777
lradius 52.0735
lwrist 14.458
lhand -25.6654 -20.8436
lfingers 7.12502
lthumb 0.868913 9.1344
rfemur -49.9691 -2.16646 22.4424
rtibia 30.4193
rfoot -5.606 0.587766
rtoes -23.3437
lfemur -0.477769 -0.3936 -19.467
ltibia 31.7228
lfoot -3.38478 -15.8887
ltoes -16.4781
363
root 0.641018 15.772 33.3985 17.6597 6.81222 0.0558206
lowerback -16.6992 -2.32827 1.33442
upperback -5.93564 -3.34784 1.99212
thorax 3.06521 -1.64997 0.707553
lowerneck -4.01155 -0.163363 -1.4523
upperneck 8.93792 -0.0415231 -0.765049
head 3.59651 -0.101415 0.00147602
rclavicle -3.27001e-014 1.35174e-014
rhumerus -101.751 -30.7695 20.2795
rradius 10.9539
rwrist 68.2656
rhand -15.6611 -36.0928
rfingers 7.12502
rthumb 10.5271 -425.809
lclavicle -3.27001e-014 1.35174e-014
lhumerus -17.4151 -5.5305 82.3172
lradius 52.6817
lwrist 14.79
lhand -25.9486 -20.0783
lfingers 7.12502
lthumb 0.59538 9.90064
rfemur -49.8013 -2.05315 23.4218
rtibia 31.8423
rfoot -5.71368 0.695989
rtoes -24.5995
lfemur -1.86083 -0.238947 -18.5532
ltibia 34.8477
lfoot 1.41785 -16.1312
ltoes -9.856
364
root 0.654969 15.7745 33.6472 17.6591 6.73556 -0.158878
lowerback -16.8249 -2.22284 1.85266
upperback -5.97621 -3.29794 2.09643
thorax 3.06474 -1.62782 0.531435
lowerneck -4.09527 -0.129032 -1.49486
upperneck 8.92302 0.0262166 -0.951246
head 3.60748 -0.0771123 -0.0492646
rclavicle 2.8948e-014 -6.36111e-015
rhumerus -101.716 -31.1821 20.532
rradius 10.9167
rwrist 68.6431
rhand -15.6691 -35.8842
rfingers 7.12502
rthumb 10.5194 -425.601
lclavicle 2.8948e-014 -6.36111e-015
lhumerus -18.6456 -5.07406 82.5636
lradius 53.3383
lwrist 15.0388
lhand -26.0673 -19.5779
lfingers 7.12502
lthumb 0.480714 10.4013
rfemur -49.7248 -2.19342 23.8515
rtibia 33.3251
rfoot -6.23883 1.29597
rtoes -21.6532
lfemur -3.20762 -0.213011 -18.2808
ltibia 37.8641
lfoot 6.0298 -16.1946
ltoes -6.35032
365
root 0.66379 15.7789 33.8764 17.5722 6.5407 -0.423853
lowerback -16.7559 -2.06813 2.28012
upperback -5.96702 -3.1656 2.20254
thorax 3.02042 -1.56493 0.430202
lowerneck -3.92541 -0.0909123 -1.41381
upperneck 8.63954 0.0832428 -1.16661
head 3.47546 -0.0518511 -0.130938
rclavicle 2.75814e-014 -1.19271e-014
rhumerus -101.781 -31.7076 20.8175
rradius 10.8131
rwrist 68.8834
rhand -16.0813 -35.4114
rfingers 7.12502
rthumb 10.1217 -425.148
lclavicle 2.75814e-014 -1.19271e-014
lhumerus -19.7035 -4.74063 82.7702
lradius 53.8044
lwrist 15.3734
lhand -25.8309 -19.2058
lfingers 7.12502
lthumb 0.709108 10.7727
rfemur -49.4905 -2.09069 24.2873
rtibia 34.6731
rfoot -6.78086 1.93751
rtoes -18.2365
lfemur -4.56154 -0.20383 -17.9899
ltibia 40.7884
lfoot 10.2063 -16.4228
ltoes -6.14072
366
root 0.664204 15.7862 34.1023 17.2929 6.34221 -0.965093
lowerback -16.575 -1.75932 2.89617
upperback -5.69987 -2.86659 2.341
thorax 3.18504 -1.41631 0.285788
lowerneck -4.40818 -0.0566607 -1.29154
upperneck 8.44099 0.147098 -1.39684
head 3.50022 -0.0254017 -0.224861
rclavicle 4.42917e-014 -3.18055e-014
rhumerus -101.43 -32.7646 19.6847
rradius 10.8098
rwrist 67.521
rhand -16.0906 -35.3259
rfingers 7.12502
rthumb 10.1127 -425.063
lclavicle 4.42917e-014 -3.18055e-014
lhumerus -20.2189 -4.75864 83.1025
lradius 54.1124
lwrist 15.7061
lhand -25.6655 -18.4445
lfingers 7.12502
lthumb 0.868856 11.5334
rfemur -48.9365 -1.74393 24.9754
rtibia 35.766
rfoot -7.31233 2.38118
rtoes -15.5515
lfemur -5.74898 -0.122312 -17.3559
ltibia 43.6926
lfoot 13.6337 -16.8844
ltoes -5.83637
367
root 0.66726 15.8019 34.3349 17.0909 6.34157 -1.38702
lowerback -16.4347 -1.60008 3.4457
upperback -5.5621 -2.74693 2.4281
thorax 3.23497 -1.35749 0.0926758
lowerneck -4.5906 -0.179724 -1.43858
upperneck 8.18657 -0.019209 -1.25414
head 3.44686 -0.10499 -0.159271
rclavicle -1.80024e-014 1.59028e-014
rhumerus -100.997 -33.6995 18.5099
rradius 10.8828
rwrist 66.4549
rhand -15.638 -35.3309
rfingers 7.12502
rthumb 10.5493 -425.046
lclavicle -1.80024e-014 1.59028e-014
lhumerus -20.98 -4.62745 83.3347
lradius 54.2551
lwrist 15.861
lhand -25.5405 -17.9533
lfingers 7.12502
lthumb 0.989542 12.0241
rfemur -48.3808 -1.72397 25.6154
rtibia 36.5973
rfoot -7.94433 2.58818
rtoes -13.2809
lfemur -7.00515 -0.128656 -16.7993
ltibia 46.5922
lfoot 16.3765 -17.6191
ltoes -7.20678
368
root 0.664783 15.823 34.5697 17.0307 6.31301 -1.62486
lowerback -16.4004 -1.5194 3.62148
upperback -5.53417 -2.67334 2.55056
thorax 3.24517 -1.32059 0.136866
lowerneck -4.63943 -0.271826 -1.5352
upperneck 8.01554 -0.141228 -1.20085
head 3.39718 -0.164876 -0.129944
rclavicle -2.95692e-014 1.90833e-014
rhumerus -100.579 -34.5471 17.6699
rradius 10.8669
rwrist 65.8473
rhand -15.0165 -34.8288
rfingers 7.12502
rthumb 11.1489 -424.513
lclavicle -2.95692e-014 1.90833e-014
lhumerus -21.864 -4.30914 83.6848
lradius 54.1102
lwrist 15.8981
lhand -25.3068 -17.9593
lfingers 7.12502
lthumb 1.21521 12.017
rfemur -47.8098 -1.67709 26.0007
rtibia 37.1876
rfoot -8.51522 2.71024
rtoes -9.57214
lfemur -8.50581 -0.162388 -16.4477
ltibia 49.4821
lfoot 19.5029 -17.7305
ltoes -9.32332
369
root 0.653899 15.8415 34.7977 16.8827 6.03466 -1.48605
lowerback -16.1836 -1.47489 3.19366
upperback -5.54699 -2.53865 2.58624
thorax 3.14107 -1.25374 0.44596
lowerneck -4.48112 -0.354749 -1.51003
upperneck 7.91192 -0.259975 -1.19475
head 3.33085 -0.221225 -0.136855
rclavicle 1.97542e-015 1.82882e-014
rhumerus -99.2896 -35.4218 15.2968
rradius 10.8759
rwrist 64.0305
rhand -16.1173 -25.6989
rfingers 7.12502
rthumb 10.087 -415.437
lclavicle 1.97542e-015 1.82882e-014
lhumerus -22.8067 -4.03747 84.0539
lradius 53.7153
lwrist 15.7654
lhand -24.9783 -17.8421
lfingers 7.12502
lthumb 1.53254 12.1321
rfemur -46.9999 -1.44475 25.862
rtibia 37.59
rfoot -8.98239 3.05561
rtoes -4.46707
lfemur -9.94305 -0.185289 -16.5876
ltibia 52.3182
lfoot 22.8698 -16.3807
ltoes -10.8546
